<?xml version="1.0" encoding="UTF-8" standalone="no"?>
<svg
   xmlns:dc="http://purl.org/dc/elements/1.1/"
   xmlns:cc="http://creativecommons.org/ns#"
   xmlns:rdf="http://www.w3.org/1999/02/22-rdf-syntax-ns#"
   xmlns:svg="http://www.w3.org/2000/svg"
   xmlns="http://www.w3.org/2000/svg"
   xmlns:sodipodi="http://sodipodi.sourceforge.net/DTD/sodipodi-0.dtd"
   xmlns:inkscape="http://www.inkscape.org/namespaces/inkscape"
   version="1.1"
   id="svg33"
   width="2560"
   height="1024"
   viewBox="0 0 2560 1024"
   sodipodi:docname="evolan.svg"
   inkscape:version="1.0.1 (3bc2e813f5, 2020-09-07)">
  <metadata
     id="metadata39">
    <rdf:RDF>
      <cc:Work
         rdf:about="">
        <dc:format>image/svg+xml</dc:format>
        <dc:type
           rdf:resource="http://purl.org/dc/dcmitype/StillImage" />
        <dc:title></dc:title>
      </cc:Work>
    </rdf:RDF>
  </metadata>
  <defs
     id="defs37" />
  <sodipodi:namedview
     pagecolor="#ffffff"
     bordercolor="#666666"
     borderopacity="1"
     objecttolerance="10"
     gridtolerance="10"
     guidetolerance="10"
     inkscape:pageopacity="0"
     inkscape:pageshadow="2"
     inkscape:window-width="2560"
     inkscape:window-height="1377"
     id="namedview35"
     showgrid="false"
     inkscape:zoom="0.20546875"
     inkscape:cx="2125.4614"
     inkscape:cy="453.44524"
     inkscape:window-x="-8"
     inkscape:window-y="-8"
     inkscape:window-maximized="1"
     inkscape:current-layer="g41" />
  <g
     inkscape:groupmode="layer"
     inkscape:label="Image"
     id="g41">
    <g
       id="g65"
       transform="translate(4.8669202,9.7338439)">
      <path
         style="fill:#fefefe"
         d="M 2.4334574,508.34981 V -3.6501904 H 1282.4335 h 1280 V 508.34981 1020.3498 h -1280 H 2.4334574 Z"
         id="path81" />
      <path
         style="fill:#a4a4a4"
         d="m 2376.7319,817.3301 -125.7984,-151.01971 -0.5,138.57073 -0.5,138.57073 -23.1052,-47.80102 -23.1052,-47.80102 -71.3515,-0.25672 c -40.7522,-0.14663 -71.7389,-0.64407 -72.2548,-1.15994 -0.4967,-0.49677 -7.3082,-14.78125 -15.1365,-31.74328 l -14.2334,-30.84006 -60.0386,-0.25776 -60.0386,-0.25776 -12.7758,27.75776 c -7.0266,15.26677 -13.6258,29.67026 -14.6649,32.00776 l -1.8891,4.25 h -167.9532 -167.9532 l -0.044,-46.25 -0.044,-46.25 -4.6276,5.5 c -8.7792,10.4343 -30.8339,31.52103 -40.7902,39 -38.1341,28.64563 -80.019,43.84258 -130.0047,47.1691 -69.3568,4.61565 -130.5107,-16.77116 -179.4178,-62.74616 -32.0034,-30.08468 -54.7114,-68.45658 -65.5481,-110.76296 l -3.3596,-13.11594 -8.4318,17.47798 c -9.2925,19.26196 -43.0591,88.68493 -90.2147,185.47798 -16.8807,34.65 -33.64819,69.19232 -37.26093,76.76071 -3.61275,7.56839 -6.83595,13.49462 -7.16267,13.1694 -0.32672,-0.32522 -11.90989,-24.06754 -25.74037,-52.76071 L 927.6408,847.84981 503.03713,847.59864 78.433457,847.34748 V 656.34864 465.34981 h 58.500003 58.5 v -41 -41 h 59 59 v -50.99194 -50.99194 l 58.25,-0.25806 58.25,-0.25806 0.26097,-41.75 0.26097,-41.75 h 58.97573 58.97573 l 0.2633,-33.75 0.2633,-33.75 213.25,-0.2523 213.25,-0.25231 v 81.50231 81.5023 H 845.92249 716.41152 l 0.26097,41.75 0.26097,41.75 87,0.26704 87,0.26704 21.72674,47.23296 c 56.43039,122.67717 65.97256,143.28666 66.67871,144.0148 0.41702,0.43001 20.45731,-42.09499 44.53399,-94.5 24.0767,-52.40501 44.0896,-95.62163 44.4733,-96.03692 0.3836,-0.41529 43.5208,-0.64029 95.8604,-0.5 l 95.1629,0.25508 -4.968,10.36773 c -2.7324,5.70225 -4.968,10.54733 -4.968,10.76685 0,0.21951 2.1375,-0.678 4.75,-1.99447 13.7741,-6.94091 40.8546,-14.89865 62.25,-18.29244 16.4108,-2.60312 59.5892,-2.60312 76,0 52.027,8.25265 94.6281,30.06724 132,67.59273 7.975,8.00778 15.625,16.24403 17,18.30277 1.375,2.05874 2.8375,3.74624 3.25,3.75 0.4125,0.004 0.75,-20.69317 0.75,-45.99317 v -46 h 83.5 83.5 v 154.5 154.5 l 28.25,-0.0408 28.25,-0.0408 100.9073,-207.9592 c 55.499,-114.37756 101.1905,-207.9592 101.5367,-207.9592 0.3461,0 12.5993,24.8625 27.2292,55.25 14.6299,30.3875 39.1384,81.29233 54.4633,113.12185 l 27.8635,57.87186 0.5,-121.591 0.5,-121.59099 87.5,104.6178 c 48.125,57.53979 105.05,125.67126 126.5,151.40326 21.45,25.732 39.3327,46.8151 39.7394,46.85134 0.4066,0.0362 0.7391,-40.54662 0.7389,-90.18412 l -4e-4,-90.25 83.5111,-0.25571 83.511,-0.25571 V 670.8441 c 0,163.62814 -0.2032,297.50571 -0.4516,297.50571 -0.2484,0 -57.0609,-67.95887 -126.25,-151.01971 z M 1375.5275,695.84436 c 26.4899,-5.52107 45.9803,-25.7953 53.4732,-55.62358 2.1754,-8.65997 3.0569,-37.1335 1.4875,-48.04631 -3.4486,-23.97964 -14.6373,-43.38123 -31.5354,-54.68339 -12.8864,-8.61894 -25.802,-12.14127 -44.5193,-12.14127 -27.7947,0 -46.8741,9.18334 -61.6087,29.65367 -10.028,13.93176 -14.2957,28.33584 -15.0648,50.84633 -1.126,32.96081 5.9671,55.09417 23.0754,72.00433 11.4184,11.2862 23.5019,17.07466 40.6587,19.47711 8.3838,1.17398 24.6833,0.46187 34.0334,-1.48689 z M 843.40971,673.09981 c -2.69552,-5.6375 -18.34921,-38.15 -34.78598,-72.25 l -29.88502,-62 -31.15263,-0.26425 -31.15262,-0.26424 v 72.51424 72.51425 h 65.9386 65.93861 z"
         id="path79" />
      <path
         style="fill:#468fcc"
         d="m 2376.9335,817.24643 -126,-151.33322 -0.5,138.48058 -0.5,138.48058 -23,-47.72926 -23,-47.72925 -71.9067,-0.28303 -71.9066,-0.28302 -14.2334,-30.84006 c -7.8284,-16.96203 -14.6465,-31.25311 -15.1513,-31.75795 -0.5425,-0.54253 -25.3916,-0.8124 -60.7669,-0.65993 l -59.8491,0.25794 -13.2688,29 c -7.2978,15.95 -13.9563,30.2375 -14.7965,31.75 l -1.5277,2.75 H 1712.98 1545.4335 v -46 c 0,-25.3 -0.3375,-45.98609 -0.75,-45.96908 -0.4125,0.017 -2.325,2.14139 -4.25,4.72084 -5.0324,6.74331 -25.1621,26.79092 -34.3244,34.18445 -28.9973,23.39929 -64.3305,40.14209 -100.1756,47.46863 -24.1028,4.92648 -62.1203,6.30631 -86,3.12134 -68.161,-9.09102 -125.4717,-44.98106 -164.2362,-102.85063 -13.637,-20.35803 -25.8356,-48.42568 -31.2599,-71.92555 -2.0957,-9.07973 -3.4014,-11.6941 -4.1806,-8.37118 -0.1778,0.75835 -32.0237,66.50028 -70.7686,146.09319 -54.31114,111.57029 -70.68685,144.38286 -71.50001,143.26692 -0.5801,-0.7961 -12.07973,-24.44472 -25.55473,-52.5525 l -24.5,-51.10505 -424.5,-0.29069 -424.500003,-0.29069 -0.252577,-190.24201 -0.252577,-190.242 58.752577,-0.258 58.75258,-0.25799 0.21704,-41 0.21704,-41 58.53296,-0.25799 58.53296,-0.258 v -50.992 -50.99201 h 58.5 58.5 v -41.99207 -41.99207 l 59.25,-0.25793 59.25,-0.25793 v -33.24979 -33.24979 l 213.25,-2.1e-4 213.25,-2.1e-4 v 80.5 80.5 h -129.5 -129.5 v 42.49451 42.49451 l 87.16453,0.25549 87.16452,0.25549 43.78008,95 c 24.07904,52.25 44.14251,95.58159 44.58547,96.29243 0.51579,0.82769 16.76485,-33.4233 45.18774,-95.25 l 44.3823,-96.54243 h 95.3761 95.376 l -5.5167,11 c -3.0342,6.05 -5.3544,11 -5.1561,11 0.1984,0 5.0396,-1.95531 10.7584,-4.34513 31.5567,-13.18732 57.0686,-18.07924 94.3977,-18.1008 24.1732,-0.014 33.434,0.85862 54,5.08811 48.3298,9.93923 95.6269,38.31747 128.5,77.10001 l 8.5,10.028 0.2599,-46.3851 0.2599,-46.38509 h 83.4901 83.4901 v 154.5 154.5 h 28.2781 28.2781 l 20.5138,-42.25 c 11.2827,-23.2375 56.72,-116.83244 100.9719,-207.98877 44.252,-91.15632 80.7956,-165.74382 81.2081,-165.75 0.4125,-0.006 0.75,0.36768 0.75,0.83079 0,0.46311 14.5227,30.95061 32.2727,67.75 17.75,36.79939 42.1625,87.42179 54.25,112.49422 l 21.9773,45.58625 0.5,-121.58517 0.5,-121.58517 14.6707,17.49892 c 21.1766,25.2589 186.528,222.9419 215.1219,257.18508 l 24.2074,28.99017 0.2553,-91.08816 0.2552,-91.08816 h 83.0261 c 65.5011,0 83.1264,0.26385 83.5008,1.25 0.2611,0.6875 0.3595,134.61422 0.2186,297.61492 l -0.256,296.36493 z M 1371.9433,696.82014 c 22.7315,-3.96405 40.4627,-17.30138 50.5509,-38.02431 9.9968,-20.53495 12.4247,-52.30139 5.9608,-77.99054 -6.1947,-24.61946 -23.7646,-44.47854 -45.7926,-51.75887 -15.4806,-5.11639 -38.1106,-5.56182 -53.459,-1.05226 -18.6053,5.46646 -37.3123,22.87142 -45.0043,41.87211 -5.3184,13.13723 -6.2672,19.43972 -6.2448,41.48354 0.018,17.8818 0.3069,21.63374 2.2614,29.37699 6.546,25.93408 21.5225,44.11962 43.0944,52.32833 13.6816,5.20619 32.1638,6.63703 48.6332,3.76501 z M 848.43045,683.59981 c -0.002,-0.4125 -12.05058,-25.725 -26.77539,-56.25 -14.7248,-30.525 -30.36095,-63.02945 -34.74699,-72.2321 l -7.97461,-16.73211 -31.25,-0.0179 -31.25,-0.0179 v 72.33333 c 0,39.78334 0.3,72.63334 0.66667,73 0.92581,0.92581 131.33404,0.84307 131.33032,-0.0833 z"
         id="path77" />
      <path
         style="fill:#4478a6"
         d="m 2376.9335,817.24643 -126,-151.33322 -0.5,138.48058 -0.5,138.48058 -23,-47.72926 -23,-47.72925 -71.9067,-0.28303 -71.9066,-0.28302 -14.2334,-30.84006 c -7.8284,-16.96203 -14.6465,-31.25311 -15.1513,-31.75795 -0.5425,-0.54253 -25.3916,-0.8124 -60.7669,-0.65993 l -59.8491,0.25794 -13.2688,29 c -7.2978,15.95 -13.9563,30.2375 -14.7965,31.75 l -1.5277,2.75 H 1712.98 1545.4335 v -46 c 0,-25.3 -0.3375,-45.98609 -0.75,-45.96908 -0.4125,0.017 -2.325,2.14139 -4.25,4.72084 -5.0324,6.74331 -25.1621,26.79092 -34.3244,34.18445 -28.9973,23.39929 -64.3305,40.14209 -100.1756,47.46863 -24.1028,4.92648 -62.1203,6.30631 -86,3.12134 -68.161,-9.09102 -125.4717,-44.98106 -164.2362,-102.85063 -13.637,-20.35803 -25.8356,-48.42568 -31.2599,-71.92555 -2.0957,-9.07973 -3.4014,-11.6941 -4.1806,-8.37118 -0.1778,0.75835 -32.0237,66.50028 -70.7686,146.09319 -54.31114,111.57029 -70.68685,144.38286 -71.50001,143.26692 -0.5801,-0.7961 -12.07973,-24.44472 -25.55473,-52.5525 l -24.5,-51.10505 -424.5,-0.29069 -424.500003,-0.29069 -0.252577,-190.24201 -0.252577,-190.242 58.752577,-0.258 58.75258,-0.25799 0.21704,-41 0.21704,-41 58.53296,-0.25799 58.53296,-0.258 v -50.992 -50.99201 h 58.5 58.5 v -41.99207 -41.99207 l 59.25,-0.25793 59.25,-0.25793 v -33.24979 -33.24979 l 213.25,-2.1e-4 213.25,-2.1e-4 v 80.5 80.5 h -129.5 -129.5 v 42.49451 42.49451 l 87.16453,0.25549 87.16452,0.25549 43.78008,95 c 24.07904,52.25 44.14251,95.58159 44.58547,96.29243 0.51579,0.82769 16.76485,-33.4233 45.18774,-95.25 l 44.3823,-96.54243 h 95.3761 95.376 l -5.5167,11 c -3.0342,6.05 -5.3544,11 -5.1561,11 0.1984,0 5.0396,-1.95531 10.7584,-4.34513 31.5567,-13.18732 57.0686,-18.07924 94.3977,-18.1008 24.1732,-0.014 33.434,0.85862 54,5.08811 48.3298,9.93923 95.6269,38.31747 128.5,77.10001 l 8.5,10.028 0.2599,-46.3851 0.2599,-46.38509 h 83.4901 83.4901 v 154.5 154.5 h 28.2781 28.2781 l 20.5138,-42.25 c 11.2827,-23.2375 56.72,-116.83244 100.9719,-207.98877 44.252,-91.15632 80.7956,-165.74382 81.2081,-165.75 0.4125,-0.006 0.75,0.36768 0.75,0.83079 0,0.46311 14.5227,30.95061 32.2727,67.75 17.75,36.79939 42.1625,87.42179 54.25,112.49422 l 21.9773,45.58625 0.5,-121.58517 0.5,-121.58517 14.6707,17.49892 c 21.1766,25.2589 186.528,222.9419 215.1219,257.18508 l 24.2074,28.99017 0.2553,-91.08816 0.2552,-91.08816 h 83.0261 c 65.5011,0 83.1264,0.26385 83.5008,1.25 0.2611,0.6875 0.3595,134.61422 0.2186,297.61492 l -0.256,296.36493 z M 1094.0742,635.0451 c 59.5976,-122.54259 108.3593,-222.89259 108.3593,-223 0,-0.10741 -25.0346,-0.0904 -55.6323,0.0377 l -55.6324,0.23303 -55.3085,120.24727 c -30.4197,66.13599 -55.67271,120.36023 -56.11773,120.49829 -0.44501,0.13807 -1.83288,-2.10306 -3.08416,-4.98029 -1.25128,-2.87723 -26.22628,-57.11259 -55.5,-120.52301 l -53.22495,-115.29164 -55.25,-0.20832 c -30.38751,-0.11458 -55.25001,-0.10377 -55.25,0.024 0,0.34291 32.04646,66.90072 159.01827,330.26768 29.30023,60.775 55.29898,114.74224 57.775,119.92721 l 4.50186,9.42721 3.49309,-6.92721 c 1.9212,-3.80997 52.25482,-107.18933 111.85252,-229.73192 z m 1373.6088,-77.94532 0.2505,-147.75003 -48.246,3e-5 -48.246,3e-5 -0.254,121.58489 -0.254,121.58488 -126.5,-151.2489 -126.5,-151.24889 -0.2541,118.61044 -0.2541,118.61043 43.8941,90.80358 c 50.6006,104.6776 52.9199,109.44272 53.5995,110.12227 0.2781,0.27817 0.3952,-49.06725 0.2602,-109.6565 -0.1351,-60.58924 -0.021,-110.14934 0.2544,-110.13355 0.275,0.0158 56.975,67.89098 126,150.83375 l 125.5,150.80504 0.2495,-82.58372 c 0.1373,-45.42105 0.3623,-149.07123 0.5,-230.33375 z M 210.43346,656.34981 v -155 h -48 -48 v 155 155 h 48 48 z m 117,-41 v -196 h -48 -48 v 196 196 h 48 48 z M 444.6795,563.84982 444.42553,316.34981 H 396.4295 348.43346 v 247.5 247.5 l 48.25,10e-6 48.25,10e-6 z m 117.50567,-41.75001 -0.25171,-289.25 -48.25,-0.2596 -48.25,-0.25961 v 289.50961 289.5096 h 48.50171 48.5017 z M 911.2435,810.27994 c -0.19614,-0.58843 -10.02114,-21.2754 -21.83333,-45.97104 l -21.47671,-44.90117 -93.25,-0.029 -93.25,-0.029 V 610.71804 502.08626 l 40.99661,0.73925 40.99661,0.73925 -10.85033,-22.35748 c -5.96767,-12.29661 -15.97865,-32.86292 -22.2466,-45.70291 l -11.39629,-23.34543 -18.75,0.13443 -18.75,0.13443 v -78.039 -78.03899 h 129 129 v -45.5 -45.5 h -177.5 -177.5 v 323 323 h 163.58333 c 115.73318,0 163.47902,-0.31295 163.22671,-1.06987 z m 468.4397,-0.42011 c 47.0627,-5.50521 87.0282,-24.68319 119.7723,-57.47433 36.1144,-36.16616 54.329,-78.95646 56.6296,-133.03569 1.8233,-42.86053 -9.339,-84.79432 -31.4102,-118 -29.6415,-44.59521 -75.006,-75.81787 -124.8024,-85.89678 -16.1351,-3.26577 -26.8883,-4.27823 -45.439,-4.27823 -26.2077,0 -45.268,2.91548 -67.439,10.31553 -57.671,19.24896 -106.5885,68.35696 -124.8731,125.35948 -13.1663,41.04638 -12.2114,92.35967 2.5023,134.46377 16.1726,46.27864 53.5439,88.11464 98.3098,110.05466 20.2363,9.91794 42.0131,16.22214 65,18.81693 12.8116,1.44619 37.9568,1.28811 51.7497,-0.32534 z m -37.5542,-76.59887 c -41.8171,-3.45044 -75.4731,-28.09095 -90.6897,-66.39648 -11.6504,-29.32837 -13.0782,-71.31751 -3.4414,-101.21269 3.4758,-10.78279 10.4404,-24.49555 16.5815,-32.6479 22.9925,-30.52241 54.89,-45.03472 95.3541,-43.38287 30.5751,1.24816 52.883,10.38929 72.5499,29.72879 17.7189,17.42396 27.1643,35.55189 32.6309,62.626 2.7787,13.76212 2.5018,48.23162 -0.4989,62.10767 -9.6402,44.57796 -37.8246,75.68076 -77.7592,85.811 -7.2163,1.83057 -34.1764,5.17206 -34.8179,4.3154 -0.058,-0.077 -4.5168,-0.50398 -9.9093,-0.94892 z m 29.8143,-36.44082 c 22.7315,-3.96405 40.4627,-17.30138 50.5509,-38.02431 9.9968,-20.53495 12.4247,-52.30139 5.9608,-77.99054 -6.1947,-24.61946 -23.7646,-44.47854 -45.7926,-51.75887 -15.4806,-5.11639 -38.1106,-5.56182 -53.459,-1.05226 -18.6053,5.46646 -37.3123,22.87142 -45.0043,41.87211 -5.3184,13.13723 -6.2672,19.43972 -6.2448,41.48354 0.018,17.8818 0.3069,21.63374 2.2614,29.37699 6.546,25.93408 21.5225,44.11962 43.0944,52.32833 13.6816,5.20619 32.1638,6.63703 48.6332,3.76501 z m 394.4485,69.02967 v -45.5 h -44.9791 -44.9792 v -155 -155 h -48 -48 v 200.5 200.5 h 92.9792 92.9791 z m 106.566,14 14.1943,-31 83.3907,-0.22429 83.3907,-0.22429 14.3882,31.47429 14.3882,31.47429 h 55.3618 c 30.449,0 55.3618,-0.27466 55.3618,-0.61035 0,-0.80484 -221.0665,-459.6894 -221.8758,-460.56457 -0.3433,-0.3712 -41.0117,82.5116 -90.3742,184.18402 l -89.75,184.85894 v 46.07928 46.07928 l 33.665,-0.2633 33.665,-0.2633 z m 57.1873,-123.25 c -0.4511,-0.83253 39.4701,-88.26778 40.2795,-88.21989 0.8521,0.0504 40.7824,87.41546 40.321,88.21989 -0.2366,0.4125 -18.377,0.75 -40.3121,0.75 -21.9351,0 -40.0649,-0.3375 -40.2884,-0.75 z m -1081.71465,27 c -0.002,-0.4125 -12.05058,-25.725 -26.77539,-56.25 -14.7248,-30.525 -30.36095,-63.02945 -34.74699,-72.2321 l -7.97461,-16.73211 -31.25,-0.0179 -31.25,-0.0179 v 72.33333 c 0,39.78334 0.3,72.63334 0.66667,73 0.92581,0.92581 131.33404,0.84307 131.33032,-0.0833 z"
         id="path75" />
      <path
         style="fill:#3a6992"
         d="m 2376.9335,817.24643 -126,-151.33322 -0.5,138.48058 -0.5,138.48058 -23,-47.72926 -23,-47.72925 -71.9067,-0.28303 -71.9066,-0.28302 -14.2334,-30.84006 c -7.8284,-16.96203 -14.6465,-31.25311 -15.1513,-31.75795 -0.5425,-0.54253 -25.3916,-0.8124 -60.7669,-0.65993 l -59.8491,0.25794 -13.2688,29 c -7.2978,15.95 -13.9563,30.2375 -14.7965,31.75 l -1.5277,2.75 H 1712.98 1545.4335 v -46 c 0,-25.3 -0.3375,-45.98609 -0.75,-45.96908 -0.4125,0.017 -2.325,2.14139 -4.25,4.72084 -5.0324,6.74331 -25.1621,26.79092 -34.3244,34.18445 -28.9973,23.39929 -64.3305,40.14209 -100.1756,47.46863 -24.1028,4.92648 -62.1203,6.30631 -86,3.12134 -68.161,-9.09102 -125.4717,-44.98106 -164.2362,-102.85063 -13.637,-20.35803 -25.8356,-48.42568 -31.2599,-71.92555 -2.0957,-9.07973 -3.4014,-11.6941 -4.1806,-8.37118 -0.1778,0.75835 -32.0237,66.50028 -70.7686,146.09319 -54.31114,111.57029 -70.68685,144.38286 -71.50001,143.26692 -0.5801,-0.7961 -12.07973,-24.44472 -25.55473,-52.5525 l -24.5,-51.10505 -424.5,-0.29069 -424.500003,-0.29069 -0.252577,-190.24201 -0.252577,-190.242 58.752577,-0.258 58.75258,-0.25799 0.21704,-41 0.21704,-41 58.53296,-0.25799 58.53296,-0.258 v -50.992 -50.99201 h 58.5 58.5 v -41.99207 -41.99207 l 59.25,-0.25793 59.25,-0.25793 v -33.24979 -33.24979 l 213.25,-2.1e-4 213.25,-2.1e-4 v 80.5 80.5 h -129.5 -129.5 v 42.49451 42.49451 l 87.16453,0.25549 87.16452,0.25549 43.78008,95 c 24.07904,52.25 44.14251,95.58159 44.58547,96.29243 0.51579,0.82769 16.76485,-33.4233 45.18774,-95.25 l 44.3823,-96.54243 h 95.3761 95.376 l -5.5167,11 c -3.0342,6.05 -5.3544,11 -5.1561,11 0.1984,0 5.0396,-1.95531 10.7584,-4.34513 31.5567,-13.18732 57.0686,-18.07924 94.3977,-18.1008 24.1732,-0.014 33.434,0.85862 54,5.08811 48.3298,9.93923 95.6269,38.31747 128.5,77.10001 l 8.5,10.028 0.2599,-46.3851 0.2599,-46.38509 h 83.4901 83.4901 v 154.5 154.5 h 28.2781 28.2781 l 20.5138,-42.25 c 11.2827,-23.2375 56.72,-116.83244 100.9719,-207.98877 44.252,-91.15632 80.7956,-165.74382 81.2081,-165.75 0.4125,-0.006 0.75,0.36768 0.75,0.83079 0,0.46311 14.5227,30.95061 32.2727,67.75 17.75,36.79939 42.1625,87.42179 54.25,112.49422 l 21.9773,45.58625 0.5,-121.58517 0.5,-121.58517 14.6707,17.49892 c 21.1766,25.2589 186.528,222.9419 215.1219,257.18508 l 24.2074,28.99017 0.2553,-91.08816 0.2552,-91.08816 h 83.0261 c 65.5011,0 83.1264,0.26385 83.5008,1.25 0.2611,0.6875 0.3595,134.61422 0.2186,297.61492 l -0.256,296.36493 z M 1090.7945,642.24889 c 61.4014,-126.2805 111.639,-229.89678 111.639,-230.25839 0,-0.36162 -25.0331,-0.5412 -55.629,-0.39909 l -55.629,0.2584 -55.5034,120.72721 c -30.5268,66.39997 -55.7813,120.54975 -56.121,120.33284 -0.3397,-0.21691 -25.59264,-54.65085 -56.11764,-120.96432 l -55.5,-120.56994 -55.31739,-0.0129 c -53.02928,-0.0124 -55.29351,0.0623 -54.7401,1.80597 0.31751,1.00038 15.10471,31.93788 32.86045,68.75 17.75574,36.81212 67.34304,139.70187 110.19401,228.64389 42.85096,88.94202 77.98153,161.61702 78.06793,161.5 0.0864,-0.11702 50.39464,-103.53317 111.79614,-229.81368 z m 1377.639,-1.89908 v -231 h -48.496 -48.496 l -0.254,121.46808 -0.254,121.46807 -126.5,-151.40578 c -69.575,-83.27318 -126.725,-151.43386 -127,-151.46817 -0.275,-0.0343 -0.275,53.82516 0,119.68771 l 0.5,119.75009 48.5,100.2801 48.5,100.2801 0.5,-110.25005 0.5,-110.25006 125.9922,151.21995 c 69.2958,83.17098 126.1083,151.21996 126.25,151.21996 0.1418,0 0.2578,-103.95 0.2578,-231 z m -2258.00004,16 v -155 h -48 -48 v 155 155 h 48 48 z m 117.74259,-41.01943 -0.24259,-196.01944 -48.25001,-0.23056 -48.25,-0.23057 v 196.25 l 1e-5,196.25 h 48.49259 48.49259 z m 117.25741,-51.48057 v -247.5 h -48.5 -48.5 v 247.5 247.5 h 48.5 48.5 z m 117,-42 v -289.5 h -48.5 -48.5 v 289.5 289.5 h 48.5 48.5 z m 343.62707,276.75 c -3.44519,-7.0125 -13.42092,-27.7125 -22.16829,-46 l -15.90431,-33.25 H 774.71069 681.43346 V 611.3609 503.372 l 40.95656,-0.2611 40.95656,-0.26109 -20.90387,-43 c -11.49712,-23.65 -21.58165,-44.2375 -22.41005,-45.75 l -1.50618,-2.75 h -18.54651 -18.54651 v -77.5 -77.5 h 129.25 129.25 v -45.5 -45.5 h -177.75 -177.75 v 323 323 h 163.94552 163.94553 z m 483.35907,10.30525 c 49.3554,-8.53313 90.6738,-31.92939 121.7107,-68.91789 28.8325,-34.36128 43.4019,-73.59656 45.0067,-121.20265 0.6482,-19.22804 -0.5181,-33.62388 -4.2124,-51.99307 -11.6362,-57.85913 -52.0743,-109.22535 -106.9911,-135.90481 -19.3725,-9.41147 -36.3914,-14.64114 -59,-18.12988 -15.0973,-2.32966 -47.9027,-2.32966 -63,0 -45.0394,6.95004 -81.7456,25.54962 -113.5137,57.51907 -30.1536,30.34483 -47.3935,63.98652 -54.6144,106.57398 -2.3458,13.83487 -2.3242,49.64602 0.039,65 3.6575,23.76096 8.7891,40.12291 19.1314,61 21.1737,42.74155 59.2983,77.82399 103.6654,95.39352 13.489,5.34169 32.5527,10.04827 48.7921,12.04615 11.6302,1.43082 51.811,0.54765 62.9861,-1.38442 z m -55.4861,-76.6 c -15.7407,-2.43553 -33.4568,-9.54043 -46,-18.44789 -7.3457,-5.21651 -20.7368,-19.06666 -25.6289,-26.50736 -8.6233,-13.11591 -15.4209,-31.00175 -18.4326,-48.5 -2.3776,-13.81365 -2.4192,-42.55469 -0.08,-55.4609 8.0154,-44.23014 37.0054,-78.04363 76.6419,-89.39363 20.3925,-5.83944 44.6335,-6.06175 66.1133,-0.60631 33.9761,8.62921 61.8481,34.99322 73.4113,69.43934 8.6284,25.70349 9.7361,60.30623 2.811,87.80523 -8.5244,33.84938 -31.2934,61.76976 -60.1801,73.7953 -14.9999,6.24447 -24.767,8.09666 -44.6555,8.46827 -9.9,0.18498 -20.7,-0.0814 -24,-0.59205 z m 38.0098,-35.48492 c 22.7315,-3.96405 40.4627,-17.30138 50.5509,-38.02431 9.9968,-20.53495 12.4247,-52.30139 5.9608,-77.99054 -6.1947,-24.61946 -23.7646,-44.47854 -45.7926,-51.75887 -15.4806,-5.11639 -38.1106,-5.56182 -53.459,-1.05226 -18.6053,5.46646 -37.3123,22.87142 -45.0043,41.87211 -5.3184,13.13723 -6.2672,19.43972 -6.2448,41.48354 0.018,17.8818 0.3069,21.63374 2.2614,29.37699 6.546,25.93408 21.5225,44.11962 43.0944,52.32833 13.6816,5.20619 32.1638,6.63703 48.6332,3.76501 z m 394.4902,69.02967 v -45.5 h -44.4968 -44.4969 l -0.2531,-154.75 -0.2532,-154.75 -48.25,-0.2596 -48.25,-0.25961 v 200.50961 200.5096 h 93 93 z m 106.6943,14.21501 14.1943,-31.21501 h 83.2123 83.2123 l 14.3071,31 14.3072,31 56.0573,0.25834 56.0573,0.25833 -2.666,-5.25833 c -1.4663,-2.89209 -51.4558,-106.50834 -111.0877,-230.25834 -59.6319,-123.75 -108.741,-225.32681 -109.1313,-225.72624 -0.3902,-0.39943 -41.0853,82.40268 -90.4333,184.00469 l -89.7238,184.73094 v 46.2453 46.24531 l 33.75,-0.035 33.75,-0.035 14.1943,-31.21501 z m 57.3027,-124.46501 c -0.01,-1.42262 39.2938,-86.25 39.9585,-86.25 0.6586,0 40.0445,84.84661 40.0445,86.26535 0,0.40406 -18,0.73465 -40,0.73465 -22,0 -40.0013,-0.3375 -40.003,-0.75 z m -1082.00005,28 c -0.002,-0.4125 -12.05058,-25.725 -26.77539,-56.25 -14.7248,-30.525 -30.36095,-63.02945 -34.74699,-72.2321 l -7.97461,-16.73211 -31.25,-0.0179 -31.25,-0.0179 v 72.33333 c 0,39.78334 0.3,72.63334 0.66667,73 0.92581,0.92581 131.33404,0.84307 131.33032,-0.0833 z"
         id="path73" />
      <path
         style="fill:#646464"
         d="m 2376.9335,817.24643 -126,-151.33322 -0.5,138.48058 -0.5,138.48058 -23,-47.72926 -23,-47.72925 -71.9067,-0.28303 -71.9066,-0.28302 -14.2334,-30.84006 c -7.8284,-16.96203 -14.6465,-31.25311 -15.1513,-31.75795 -0.5425,-0.54253 -25.3916,-0.8124 -60.7669,-0.65993 l -59.8491,0.25794 -13.2688,29 c -7.2978,15.95 -13.9563,30.2375 -14.7965,31.75 l -1.5277,2.75 H 1712.98 1545.4335 v -46 c 0,-25.3 -0.3375,-45.98609 -0.75,-45.96908 -0.4125,0.017 -2.325,2.14139 -4.25,4.72084 -5.0324,6.74331 -25.1621,26.79092 -34.3244,34.18445 -28.9973,23.39929 -64.3305,40.14209 -100.1756,47.46863 -24.1028,4.92648 -62.1203,6.30631 -86,3.12134 -68.161,-9.09102 -125.4717,-44.98106 -164.2362,-102.85063 -13.637,-20.35803 -25.8356,-48.42568 -31.2599,-71.92555 -2.0957,-9.07973 -3.4014,-11.6941 -4.1806,-8.37118 -0.1778,0.75835 -32.0237,66.50028 -70.7686,146.09319 -54.31114,111.57029 -70.68685,144.38286 -71.50001,143.26692 -0.5801,-0.7961 -12.07973,-24.44472 -25.55473,-52.5525 l -24.5,-51.10505 -424.5,-0.29069 -424.500003,-0.29069 -0.252577,-190.24201 -0.252577,-190.242 58.752577,-0.258 58.75258,-0.25799 0.21704,-41 0.21704,-41 58.53296,-0.25799 58.53296,-0.258 v -50.992 -50.99201 h 58.5 58.5 v -41.99207 -41.99207 l 59.25,-0.25793 59.25,-0.25793 v -33.24979 -33.24979 l 213.25,-2.1e-4 213.25,-2.1e-4 v 80.5 80.5 h -129.5 -129.5 v 42.49451 42.49451 l 87.16453,0.25549 87.16452,0.25549 43.78008,95 c 24.07904,52.25 44.14251,95.58159 44.58547,96.29243 0.51579,0.82769 16.76485,-33.4233 45.18774,-95.25 l 44.3823,-96.54243 h 95.3761 95.376 l -5.5167,11 c -3.0342,6.05 -5.3544,11 -5.1561,11 0.1984,0 5.0396,-1.95531 10.7584,-4.34513 31.5567,-13.18732 57.0686,-18.07924 94.3977,-18.1008 24.1732,-0.014 33.434,0.85862 54,5.08811 48.3298,9.93923 95.6269,38.31747 128.5,77.10001 l 8.5,10.028 0.2599,-46.3851 0.2599,-46.38509 h 83.4901 83.4901 v 154.5 154.5 h 28.2781 28.2781 l 20.5138,-42.25 c 11.2827,-23.2375 56.72,-116.83244 100.9719,-207.98877 44.252,-91.15632 80.7956,-165.74382 81.2081,-165.75 0.4125,-0.006 0.75,0.36768 0.75,0.83079 0,0.46311 14.5227,30.95061 32.2727,67.75 17.75,36.79939 42.1625,87.42179 54.25,112.49422 l 21.9773,45.58625 0.5,-121.58517 0.5,-121.58517 14.6707,17.49892 c 21.1766,25.2589 186.528,222.9419 215.1219,257.18508 l 24.2074,28.99017 0.2553,-91.08816 0.2552,-91.08816 h 83.0261 c 65.5011,0 83.1264,0.26385 83.5008,1.25 0.2611,0.6875 0.3595,134.61422 0.2186,297.61492 l -0.256,296.36493 z M 1090.4485,643.34981 c 61.1552,-125.675 111.4234,-229.2913 111.707,-230.25845 0.4884,-1.66526 -2.4426,-1.74475 -55.3033,-1.5 l -55.819,0.25845 -55.5139,120.73591 c -30.5327,66.40475 -55.80181,120.40475 -56.15356,120 -0.35174,-0.40475 -16.2749,-34.71091 -35.38481,-76.23591 -19.1099,-41.525 -44.01953,-95.6375 -55.35473,-120.25 l -20.60945,-44.75 h -55.71949 -55.71949 l 8.79297,18.25 c 20.66169,42.88379 75.53818,156.75216 95.78341,198.75 12.06341,25.025 43.45714,90.16664 69.76386,144.7592 26.30671,54.59256 47.94488,99.14256 48.08482,99 0.13994,-0.14256 50.29057,-103.0842 111.44567,-228.7592 z m 1377.985,-2.98124 V 409.38732 l -48.5002,-0.26875 -48.5003,-0.26876 3e-4,121.25 c 10e-5,66.6875 -0.3373,121.2206 -0.7498,121.18467 -0.4125,-0.0359 -57.675,-68.20076 -127.25,-151.47739 l -126.5,-151.41206 -0.254,118.78509 -0.2541,118.78508 49.2541,101.87547 49.254,101.87546 0.5,-110.32833 0.5,-110.32833 125.899,151.14517 c 69.2445,83.12984 126.057,151.14517 126.25,151.14517 0.1931,0 0.351,-103.94156 0.351,-230.98124 z M 210.43346,656.84981 v -155.5 h -48.5 -48.5 v 154.83333 c 0,85.15834 0.3,155.13334 0.66667,155.5 0.36666,0.36667 22.19166,0.66667 48.5,0.66667 h 47.83333 z m 117.5,-41.5 v -196.5 l -48.25,-0.2596 -48.25,-0.25961 v 197.01921 197.01921 l 48.25,-0.25961 48.25,-0.2596 z m 117.25199,-51.25 0.25199,-247.75 h -48.50199 -48.50199 v 248.0096 248.00961 l 48.25,-0.25961 48.25,-0.2596 z m 116.99971,-42 0.25171,-289.75 h -48.50171 -48.5017 v 290.0096 290.00961 l 48.25,-0.25961 48.25,-0.2596 z m 340.38122,268.99408 c -5.36351,-11.13424 -15.31116,-31.83158 -22.10588,-45.99408 l -12.35404,-25.75 h -93.3365 -93.3365 v -108 -108 h 41.08333 c 22.69789,0 40.93416,-0.38702 40.75,-0.86482 -0.18333,-0.47565 -10.22322,-21.17565 -22.31087,-46 l -21.97753,-45.13518 h -18.77247 -18.77246 v -77.5 -77.5 h 129.5 129.5 v -45.5 -45.5 h -178 -178 l -3e-5,323.25 -2e-5,323.25 163.9424,-0.25592 163.94241,-0.25592 z m 970.71012,-11.2227 14.4474,-31.53281 82.9391,0.25572 82.939,0.25571 14.2913,31 14.2913,31 56.0624,0.2583 56.0623,0.2583 -5.6879,-11.87019 c -57.6193,-120.24636 -216.8446,-450.0812 -217.2867,-450.1089 -0.3294,-0.0206 -40.9419,83.0217 -90.25,184.53851 l -89.6512,184.57602 v 46.67398 46.67398 l 33.6978,-0.2229 33.6977,-0.22291 z m 57.606,-125.27138 c 2.0645,-5.44942 39.04,-85.24942 39.4992,-85.24656 0.4582,0.003 37.5019,79.74992 39.5983,85.24656 0.6288,1.64872 -1.6599,1.75 -39.5465,1.75 -37.8849,0 -40.1756,-0.10135 -39.551,-1.75 z m -547.7502,155.2118 c 54.8046,-7.14335 102.8146,-35.20344 135.5957,-79.25076 26.9981,-36.27681 38.979,-76.84619 37.4092,-126.67375 -0.6244,-19.81676 -2.2197,-31.23175 -6.7516,-48.3108 -16.2915,-61.39567 -66.4853,-114.2116 -127.9521,-134.63635 -49.6317,-16.49207 -109.9701,-13.08479 -155.5,8.78103 -47.9284,23.01769 -86.2266,65.17045 -102.7842,113.12883 -14.299,41.41673 -14.1876,92.31764 0.297,135.75032 14.3913,43.15287 46.3351,82.20245 87.3055,106.72639 20.895,12.50727 47.6354,21.46573 74.2784,24.88448 11.8104,1.51548 45.1703,1.28617 58.1021,-0.39939 z m -48.1988,-77.5703 c -14.7086,-2.11956 -32.3821,-8.74481 -44.272,-16.59628 -13.2174,-8.72803 -27.9841,-25.70083 -35.4928,-40.79522 -10.0032,-20.1092 -15.0585,-51.17866 -12.6913,-78 2.9031,-32.8939 14.8026,-59.0184 35.9166,-78.85278 17.3801,-16.32673 37.5613,-25.13797 63.5395,-27.74173 30.6207,-3.06907 59.0543,4.30212 81.3235,21.08247 22.0789,16.63694 36.5218,41.77301 41.8623,72.85608 2.336,13.59622 2.2834,42.2768 -0.1022,55.65596 -9.1967,51.57887 -42.9588,85.48085 -92.0836,92.46516 -8.3233,1.18337 -29.5626,1.14219 -38,-0.0737 z m 37.0098,-35.42117 c 22.7315,-3.96405 40.4627,-17.30138 50.5509,-38.02431 9.9968,-20.53495 12.4247,-52.30139 5.9608,-77.99054 -6.1947,-24.61946 -23.7646,-44.47854 -45.7926,-51.75887 -15.4806,-5.11639 -38.1106,-5.56182 -53.459,-1.05226 -18.6053,5.46646 -37.3123,22.87142 -45.0043,41.87211 -5.3184,13.13723 -6.2672,19.43972 -6.2448,41.48354 0.018,17.8818 0.3069,21.63374 2.2614,29.37699 6.546,25.93408 21.5225,44.11962 43.0944,52.32833 13.6816,5.20619 32.1638,6.63703 48.6332,3.76501 z m 394.4902,69.02967 v -45.5 h -44.5 -44.5 v -155 -155 h -48.5 -48.5 v 200.5 200.5 h 93 93 z m -918.00305,-82.25 c -0.002,-0.4125 -12.05058,-25.725 -26.77539,-56.25 -14.7248,-30.525 -30.36095,-63.02945 -34.74699,-72.2321 l -7.97461,-16.73211 -31.25,-0.0179 -31.25,-0.0179 v 72.33333 c 0,39.78334 0.3,72.63334 0.66667,73 0.92581,0.92581 131.33404,0.84307 131.33032,-0.0833 z"
         id="path71" />
      <path
         style="fill:#31506c"
         d="m 2376.9335,817.09826 -126,-151.24845 -0.5,138.40292 -0.5,138.40292 -23.098,-47.90292 -23.098,-47.90292 -71.902,-0.26757 -71.902,-0.26757 -14.4614,-31.4901 -14.4614,-31.49009 -60.508,0.25767 -60.508,0.25766 -14.2619,31 -14.2618,31 -168.0187,0.25291 -168.0188,0.2529 -0.033,-46.2529 -0.033,-46.25291 -2.0528,2.5 c -17.4613,21.26597 -34.6669,37.03031 -55.7619,51.09082 -28.3491,18.89556 -59.8684,31.01505 -95.1545,36.58784 -16.4314,2.59504 -61.5602,2.59816 -77.9286,0.005 -49.7437,-7.87944 -89.4606,-27.72807 -125.4062,-62.67213 -32.7258,-31.8139 -52.3099,-65.03286 -63.5357,-107.77067 l -3.872,-14.74124 -5.984,12.5 c -3.2911,6.875 -23.84,49.175 -45.6642,94 -21.8241,44.825 -51.231,105.22774 -65.3486,134.22831 -14.11765,29.00057 -25.97525,52.40057 -26.35026,52 -0.37552,-0.40019 -11.92413,-24.12793 -25.66409,-52.72793 l -24.98173,-52 -424.1096,0.41027 -424.109595,0.41026 -0.255134,-190.65239 -0.255134,-190.6524 58.500003,-0.25787 58.5,-0.25787 0.26109,-41.25 0.2611,-41.25 h 58.4889 58.48891 v -51 -51 h 58.5 58.5 v -42 -42 h 59.5 59.5 v -33.5 -33.5 h 213 213 v 80.5 80.5 h -129.5 -129.5 v 42.49451 42.49451 l 87.08982,0.25549 87.08981,0.25549 43.99379,95.5 c 24.19658,52.525 44.3256,95.84693 44.73114,96.27095 0.40554,0.42403 20.71048,-42.66347 45.12208,-95.75 l 44.3847,-96.52095 h 94.8617 94.8618 l -0.6995,2.25 c -0.3848,1.2375 -2.6696,6.1875 -5.0775,11 -2.4078,4.8125 -3.9054,8.75 -3.328,8.75 0.5774,0 2.7194,-0.8405 4.76,-1.86777 14.571,-7.33534 40.4062,-14.86808 62.7102,-18.28436 18.5052,-2.83441 53.9323,-3.07337 72,-0.48565 52.3425,7.49666 96.9701,29.47378 133.6646,65.82388 5.7264,5.67264 13.0945,13.65307 16.3735,17.73428 l 5.9619,7.42039 0.2599,-46.67039 0.2599,-46.67038 h 83.4901 83.4901 v 155.01557 155.01558 l 28.2182,-0.26558 28.2181,-0.26557 51.0319,-105.03539 c 28.0675,-57.76947 62.8245,-129.31947 77.2378,-159 14.4133,-29.68054 37.0093,-76.19319 50.2135,-103.36146 l 24.0075,-49.39686 10.3231,21.39686 c 5.6777,11.76827 30.3316,62.92246 54.7865,113.67599 l 44.4634,92.27914 0.5,-121.70227 0.5,-121.70227 59,70.53113 c 32.45,38.79212 89.6,107.11665 127,151.83228 l 68,81.30116 0.2553,-90.65915 0.2553,-90.65916 h 83.4947 83.4947 v 297 c 0,163.35 -0.1125,296.9993 -0.25,296.99845 -0.1375,-8.6e-4 -56.95,-68.06336 -126.25,-151.25 z M 1090.4485,643.34981 c 61.1552,-125.675 111.4234,-229.2913 111.707,-230.25845 0.4884,-1.66526 -2.4426,-1.74475 -55.3033,-1.5 l -55.819,0.25845 -55.5139,120.73591 c -30.5327,66.40475 -55.80181,120.40475 -56.15356,120 -0.35174,-0.40475 -16.2749,-34.71091 -35.38481,-76.23591 -19.1099,-41.525 -44.01953,-95.6375 -55.35473,-120.25 l -20.60945,-44.75 h -55.71949 -55.71949 l 8.79297,18.25 c 20.66169,42.88379 75.53818,156.75216 95.78341,198.75 12.06341,25.025 43.45714,90.16664 69.76386,144.7592 26.30671,54.59256 47.94488,99.14256 48.08482,99 0.13994,-0.14256 50.29057,-103.0842 111.44567,-228.7592 z m 1377.985,-2.98124 V 409.38732 l -48.5002,-0.26875 -48.5003,-0.26876 3e-4,121.25 c 10e-5,66.6875 -0.3373,121.2206 -0.7498,121.18467 -0.4125,-0.0359 -57.675,-68.20076 -127.25,-151.47739 l -126.5,-151.41206 -0.254,118.78509 -0.2541,118.78508 49.2541,101.87547 49.254,101.87546 0.5,-110.32833 0.5,-110.32833 125.899,151.14517 c 69.2445,83.12984 126.057,151.14517 126.25,151.14517 0.1931,0 0.351,-103.94156 0.351,-230.98124 z M 210.43346,656.84981 v -155.5 h -48.5 -48.5 v 154.83333 c 0,85.15834 0.3,155.13334 0.66667,155.5 0.36666,0.36667 22.19166,0.66667 48.5,0.66667 h 47.83333 z m 117.5,-41.5 v -196.5 l -48.25,-0.2596 -48.25,-0.25961 v 197.01921 197.01921 l 48.25,-0.25961 48.25,-0.2596 z m 117.25199,-51.25 0.25199,-247.75 h -48.50199 -48.50199 v 248.0096 248.00961 l 48.25,-0.25961 48.25,-0.2596 z m 116.99971,-42 0.25171,-289.75 h -48.50171 -48.5017 v 290.0096 290.00961 l 48.25,-0.25961 48.25,-0.2596 z m 340.38122,268.99408 c -5.36351,-11.13424 -15.31116,-31.83158 -22.10588,-45.99408 l -12.35404,-25.75 h -93.3365 -93.3365 v -108 -108 h 41.08333 c 22.69789,0 40.93416,-0.38702 40.75,-0.86482 -0.18333,-0.47565 -10.22322,-21.17565 -22.31087,-46 l -21.97753,-45.13518 h -18.77247 -18.77246 v -77.5 -77.5 h 129.5 129.5 v -45.5 -45.5 h -178 -178 l -3e-5,323.25 -2e-5,323.25 163.9424,-0.25592 163.94241,-0.25592 z m 970.71012,-11.2227 14.4474,-31.53281 82.9391,0.25572 82.939,0.25571 14.2913,31 14.2913,31 56.0624,0.2583 56.0623,0.2583 -5.6879,-11.87019 c -57.6193,-120.24636 -216.8446,-450.0812 -217.2867,-450.1089 -0.3294,-0.0206 -40.9419,83.0217 -90.25,184.53851 l -89.6512,184.57602 v 46.67398 46.67398 l 33.6978,-0.2229 33.6977,-0.22291 z m 57.606,-125.27138 c 2.0645,-5.44942 39.04,-85.24942 39.4992,-85.24656 0.4582,0.003 37.5019,79.74992 39.5983,85.24656 0.6288,1.64872 -1.6599,1.75 -39.5465,1.75 -37.8849,0 -40.1756,-0.10135 -39.551,-1.75 z m -547.7502,155.2118 c 54.8046,-7.14335 102.8146,-35.20344 135.5957,-79.25076 26.9981,-36.27681 38.979,-76.84619 37.4092,-126.67375 -0.6244,-19.81676 -2.2197,-31.23175 -6.7516,-48.3108 -16.2915,-61.39567 -66.4853,-114.2116 -127.9521,-134.63635 -49.6317,-16.49207 -109.9701,-13.08479 -155.5,8.78103 -47.9284,23.01769 -86.2266,65.17045 -102.7842,113.12883 -14.299,41.41673 -14.1876,92.31764 0.297,135.75032 14.3913,43.15287 46.3351,82.20245 87.3055,106.72639 20.895,12.50727 47.6354,21.46573 74.2784,24.88448 11.8104,1.51548 45.1703,1.28617 58.1021,-0.39939 z m -48.1988,-77.5703 c -14.7086,-2.11956 -32.3821,-8.74481 -44.272,-16.59628 -13.2174,-8.72803 -27.9841,-25.70083 -35.4928,-40.79522 -10.0032,-20.1092 -15.0585,-51.17866 -12.6913,-78 2.9031,-32.8939 14.8026,-59.0184 35.9166,-78.85278 17.3801,-16.32673 37.5613,-25.13797 63.5395,-27.74173 30.6207,-3.06907 59.0543,4.30212 81.3235,21.08247 22.0789,16.63694 36.5218,41.77301 41.8623,72.85608 2.336,13.59622 2.2834,42.2768 -0.1022,55.65596 -9.1967,51.57887 -42.9588,85.48085 -92.0836,92.46516 -8.3233,1.18337 -29.5626,1.14219 -38,-0.0737 z m 43,-36.29073 c 27.8302,-7.51716 46.8243,-29.89939 52.7002,-62.10077 1.9181,-10.51195 1.6167,-36.10714 -0.5536,-47 -6.1939,-31.08841 -26.7983,-53.82485 -54.2784,-59.89484 -16.7425,-3.69819 -34.4182,-2.96996 -49.3586,2.03357 -24.0493,8.05411 -41.4048,29.17505 -47.5457,57.86127 -2.347,10.96356 -2.376,35.78094 -0.056,47.8724 3.6052,18.78939 10.5093,32.7 21.6534,43.6276 10.2708,10.07132 22.6063,16.37285 37.0594,18.93158 8.0536,1.42578 33.2478,0.59544 40.3792,-1.33081 z m 388.5,69.89923 v -45.5 h -44.5 -44.5 v -155 -155 h -48.5 -48.5 v 200.5 200.5 h 93 93 z M 848.43346,683.46759 c 0,-0.48522 -10.59917,-22.87272 -23.55372,-49.75 -12.95454,-26.87728 -28.57368,-59.33028 -34.70919,-72.11778 l -11.15546,-23.25 h -31.29082 -31.29081 v 73 73 h 66 c 37.45909,0 66,-0.38151 66,-0.88222 z"
         id="path69" />
      <path
         style="fill:#000000"
         d="m 2376.9335,816.9641 -126,-151.34237 -0.5,138.40371 -0.5,138.40371 -23.0482,-47.78967 -23.0482,-47.78967 -71.9518,-0.28482 -71.9518,-0.28482 -14.4159,-31.46518 -14.4159,-31.46518 -60.5841,0.0105 -60.5841,0.0105 -14.3742,31.4895 -14.3741,31.48949 h -167.8659 -167.8658 l -0.26,-46.17039 -0.26,-46.17039 -5.9376,7.34918 c -26.3327,32.59321 -65.4512,59.34633 -106.7794,73.02646 -26.8411,8.88472 -53.7608,12.50912 -86.6664,11.66854 -34.431,-0.87953 -60.1815,-6.25912 -89.1166,-18.61752 -48.932,-20.8992 -96.2264,-67.66195 -117.7697,-116.44577 -5.2826,-11.96234 -12.318,-32.94386 -14.7443,-43.9716 -0.9477,-4.30732 -2.0827,-7.45732 -2.5222,-7 -0.7322,0.76172 -15.7223,31.49973 -110.2304,226.03376 -17.68923,36.41125 -32.39524,65.96926 -32.68002,65.68448 -0.28479,-0.28478 -11.81367,-24.0008 -25.61975,-52.70227 L 927.76518,846.84981 503.59932,846.59864 79.433457,846.34747 V 656.34864 466.34981 h 58.500003 58.5 l -9e-5,-41.25 -9e-5,-41.25 h 58.25009 58.25009 l 0.25908,-51.25 0.25908,-51.25 h 58.49092 58.49092 v -42 -42 h 59.5 59.5 v -33.5 -33.5 h 212.75 212.75 v 80.5 80.5 h -129.25 -129.25 v 42.5 42.5 h 86.87303 86.87303 l 7.53982,16.25 c 31.03855,66.89503 80.71412,175.12634 80.71412,175.85697 0,3.61775 3.45407,-2.82497 15.20275,-28.35697 7.40279,-16.0875 27.37309,-59.512 44.37839,-96.49889 l 30.9189,-67.24888 94.75,-10e-4 c 52.1125,-6.1e-4 94.75,0.17717 94.75,0.39506 0,0.21789 -2.25,5.21462 -5,11.10383 -2.75,5.88921 -5,10.85665 -5,11.03876 0,0.18211 3.4076,-1.24331 7.5725,-3.16759 18.0129,-8.32247 45.3326,-15.66521 68.9275,-18.5257 14.6338,-1.7741 47.4473,-1.49116 62.5,0.53891 62.078,8.37211 111.0637,35.82398 153.7151,86.14279 l 4.2151,4.97283 0.035,-46.75 0.035,-46.75 h 82.9968 82.9969 l 0.2531,154.75 0.2532,154.75 28.2318,0.26554 c 26.0837,0.24534 28.3118,0.13121 29.2824,-1.5 1.0131,-1.70255 23.6007,-48.09853 70.4782,-144.76554 21.1532,-43.6205 48.9406,-100.83196 105.7605,-217.75 13.8322,-28.4625 25.4444,-51.75 25.8049,-51.75 0.3605,0 2.2517,3.4875 4.2026,7.75 1.9509,4.2625 17.5631,36.775 34.6938,72.25 17.1306,35.475 39.9751,82.8375 50.7655,105.25 10.7904,22.4125 19.8802,40.75003 20.1996,40.75007 0.3194,3e-5 0.4629,-54.77674 0.3188,-121.72616 -0.2275,-105.76104 -0.074,-121.53262 1.173,-120.25007 0.7892,0.81189 34.207,40.67105 74.2619,88.57591 40.0548,47.90486 96.677,115.61793 125.827,150.47348 l 53,63.37373 0.2553,-90.72348 0.2553,-90.72348 h 83.4947 83.4947 v 297 c 0,163.35 -0.1125,296.99025 -0.25,296.97833 -0.1375,-0.0119 -56.95,-68.12574 -126.25,-151.36404 z M 1091.475,641.84981 c 61.203,-125.95 111.4577,-229.3375 111.6773,-229.75 0.2196,-0.4125 -24.957,-0.75 -55.9478,-0.75 h -56.3471 l -55.3917,120.52023 c -30.4655,66.28613 -55.70871,120.17363 -56.09609,119.75 -0.38737,-0.42363 -17.48444,-37.22023 -37.99349,-81.77023 -20.50905,-44.55 -45.27116,-98.325 -55.02689,-119.5 l -17.73771,-38.5 -56.19923,-0.25838 c -44.85442,-0.20621 -56.09091,-0.004 -55.66261,1 0.29514,0.69211 14.00982,29.15838 30.47705,63.25838 16.46724,34.1 65.82357,136.475 109.68073,227.5 43.85715,91.025 80.18376,166.33581 80.72578,167.35736 0.54203,1.02155 1.34059,1.47155 1.77458,1 0.434,-0.47155 50.86428,-103.90736 112.06718,-229.85736 z M 2468.4335,640.3403 V 408.33078 l -48.75,0.25952 -48.75,0.25951 v 121.3675 121.36751 l -3.6781,-4.36751 c -2.0229,-2.40212 -35.1011,-41.9425 -73.507,-87.8675 -38.4059,-45.925 -93.9007,-112.28179 -123.3219,-147.45954 l -53.493,-63.95954 -0.2541,119.38687 -0.2541,119.38687 49.2541,101.9012 49.2541,101.9012 0.5,-110.49406 0.5,-110.49406 126,151.36617 c 69.3,83.25139 126.1125,151.38838 126.25,151.41553 0.1375,0.0272 0.25,-104.35492 0.25,-231.96015 z m -2257.24691,16.25951 -0.25313,-155.75 -48.75,-0.25951 -48.75,-0.25952 V 656.3403 812.34981 h 49.00313 49.00314 z m 117.24687,-41.25 v -197 h -49 -49 v 197 197 h 49 49 z m 117,-51 v -248 h -49 -49 v 247.33333 c 0,136.03334 0.3,247.63334 0.66667,248 0.36666,0.36667 22.41666,0.66667 49,0.66667 h 48.33333 z m 117,-42 v -290 h -48.5 -48.5 v 290 290 h 48.5 48.5 z m 350,289.28575 c 0,-0.39283 -9.99452,-21.54283 -22.21004,-47 l -22.21004,-46.28575 h -93.28996 -93.28996 v -107.5 -107.5 h 41 c 22.55,0 40.99884,-0.3375 40.99743,-0.75 -10e-4,-0.4125 -8.14637,-17.4 -18.0999,-37.75 -9.95353,-20.35 -19.8233,-40.7125 -21.93282,-45.25 l -3.83549,-8.25 h -19.06461 -19.06461 v -77 -77 h 129.50999 129.50998 l -0.25998,-46.25 -0.25999,-46.25 h -178 -178 l -0.25597,322.5 c -0.14078,177.375 -0.0424,323.0625 0.21862,323.75 0.377,0.99299 34.20064,1.25 164.50597,1.25 90.21726,0 164.03138,-0.32141 164.03138,-0.71425 z m 474.00004,-1.80684 c 21.5067,-3.2464 39.0373,-8.56351 57.787,-17.5271 54.8621,-26.22769 94.8938,-75.74842 107.5703,-133.06863 3.6446,-16.47973 4.9273,-29.13328 4.9045,-48.38318 -0.05,-42.14763 -10.0785,-77.23154 -31.3002,-109.5 -29.5244,-44.89283 -76.288,-76.88631 -126.9616,-86.86113 -46.5804,-9.1691 -95.3171,-3.45182 -134.5,15.77813 -21.362,10.48392 -38.7834,23.37985 -57.0384,42.2218 -30.0151,30.9801 -47.1765,65.89396 -52.9116,107.64558 -2.0127,14.65289 -2.0144,42.56919 0,57.9144 5.9299,45.25166 22.8672,80.98494 53.4185,112.69922 35.9502,37.31873 74.3117,55.52651 128.535,61.00749 8.2086,0.82974 40.3678,-0.39713 50.5,-1.92658 z m -44,-77.04818 c -1.375,-0.24037 -5.875,-0.93262 -10,-1.53834 -9.6907,-1.42297 -21.6834,-5.21595 -30.5,-9.64631 -38.8328,-19.51358 -59.4855,-58.25837 -59.4972,-111.61774 -0.013,-58.46382 30.7482,-102.91592 80.4972,-116.32494 9.3994,-2.53346 11.2912,-2.69533 31.5,-2.69533 20.1994,0 22.1049,0.16285 31.5,2.6921 11.5405,3.10682 26.2214,9.88912 34.9442,16.14357 7.7408,5.55036 19.978,18.23371 25.5075,26.43743 9.153,13.57986 15.7364,31.40921 18.6907,50.61883 2.3741,15.43724 1.3716,46.51946 -1.9514,60.5 -5.8878,24.77175 -15.7607,42.46253 -32.3365,57.94251 -19.0719,17.81105 -42.7126,26.75849 -72.8545,27.57366 -7.15,0.19337 -14.125,0.15492 -15.5,-0.0854 z m 35.5,-36.82628 c 26.9237,-7.28884 45.7535,-28.44667 52.156,-58.60445 2.5058,-11.80316 2.5234,-39.13056 0.033,-50.80494 -6.5538,-30.71903 -25.7333,-52.42892 -52.3269,-59.23041 -16.2155,-4.14722 -36.4075,-3.55093 -51.3019,1.51499 -18.6422,6.3406 -34.8488,22.04351 -42.6281,41.30307 -9.3634,23.18132 -9.5842,55.68644 -0.5517,81.21122 3.9578,11.18417 8.5367,18.3932 17.1435,26.99066 10.0658,10.05491 20.1178,15.38828 34.9764,18.55769 8.7324,1.86266 34.2341,1.29992 42.5,-0.93783 z m 388.5,69.89555 v -46.5 h -44.5 -44.5 v -154.5 -154.5 h -48.5 -48.5 v 201 201 h 93 93 z m 101.678,26 c 5.0676,-11 11.6238,-25.175 14.5695,-31.5 l 5.3556,-11.5 82.823,0.5 82.8229,0.5 14.2912,31 14.2911,31 56.0844,0.25833 c 30.8464,0.14208 56.0843,-0.11136 56.0843,-0.56319 0,-0.45184 -19.6169,-41.51808 -43.5932,-91.25833 -23.9762,-49.74024 -57.684,-119.68681 -74.9062,-155.43681 -88.8812,-184.50027 -103.6614,-215.05986 -104.3452,-215.74404 -0.4089,-0.40922 -41.3386,82.84078 -90.9549,185 l -90.2114,185.74404 0.01,46.26313 0.01,46.26313 34.2321,-0.26313 34.232,-0.26313 9.2139,-20 z m 63.6913,-138.75 c 0.7679,-1.7875 9.549,-20.97357 19.5135,-42.63571 9.9644,-21.66215 18.1172,-39.86465 18.1172,-40.45 0,-0.6695 0.341,-0.71189 0.9192,-0.11429 0.7463,0.77134 33.6454,71.49383 38.7034,83.2 l 1.4042,3.25 h -40.0268 -40.0268 z M 848.43346,683.36058 c 0,-0.54408 -15.60367,-33.39408 -34.67481,-73 l -34.67481,-72.01077 h -31.32519 -31.32519 v 73 73 h 66 c 42.85426,0 66,-0.34692 66,-0.98923 z"
         id="path67" />
    </g>
  </g>
</svg>
